# xmcd
#
# Track frame offsets: 
#        150
#        14301
#        27684
#        41647
#        55449
#        69146
#        82766
#        96363
#        110002
#        123342
#        137197
#        150055
#        163413
#        177239
#        190784
#        204635
#        218202
#        231950
#        245374
#        258902
#        272865
#        286472
#
# Disc length: 3997 seconds
#
# Revision: 0
# Processed by: cddbd v1.5.2PL0 Copyright (c) Steve Scherf et al.
# Submitted via: ExactAudioCopy v1.1
#
DISCID=3e0f9b16
DTITLE=Various Artist - Eurovision Song Contest Lisbon 2018 - CD 1
DYEAR=2018
DGENRE=Eurovision
TTITLE0=Eugent Bushpepa - Mall (Albania)
TTITLE1=Sevak Khanagyan - Qami (Armenia)
TTITLE2=Jessica Mauboy - We Got Love (Australia)
TTITLE3=Cesár Sampson - Nobody But You (Austria)
TTITLE4=Aisel - X My Heart (Azerbaijan)
TTITLE5=Sennek - A Matter Of Time (Belgium)
TTITLE6=Equinox - Bones (Bulgaria)
TTITLE7=Alekseev - Forever (Belarus)
TTITLE8=Zibbz - Stones (Switzerland)
TTITLE9=Eleni Foureira - Fuego (Cyprus)
TTITLE10=Mikolas Josef - Lie To Me (Czech Republic)
TTITLE11=Michael Schulte - You Let Me Walk Alone (Germany)
TTITLE12=Rasmussen - Higher Ground (Denmark)
TTITLE13=Amaia Y Alfred - Tu Canción (Spain)
TTITLE14=Elina Nechayeva - La Forza (Estonia)
TTITLE15=Saara Aalto - Monsters (Finland)
TTITLE16=Madame Monsieur - Mercy (France)
TTITLE17=SuRie - Storm (United Kingdom)
TTITLE18=Ethno - Jazz Band Iriao - For You (Georgia)
TTITLE19=Yianna Terzi - Oniro Mou (Greece)
TTITLE20=Franka - Crazy (Croatia)
TTITLE21=AWS - Viszlát Nyár (Hungary)
EXTD=
EXTT0=
EXTT1=
EXTT2=
EXTT3=
EXTT4=
EXTT5=
EXTT6=
EXTT7=
EXTT8=
EXTT9=
EXTT10=
EXTT11=
EXTT12=
EXTT13=
EXTT14=
EXTT15=
EXTT16=
EXTT17=
EXTT18=
EXTT19=
EXTT20=
EXTT21=
PLAYORDER=
